<svg width="24" height="24" viewBox="0 0 24 24" fill="none" xmlns="http://www.w3.org/2000/svg">
<path d="M9.619 3.31885H4.35025C3.30025 3.31885 2.43775 4.18135 2.43775 5.2501C2.40025 6.28135 3.22525 7.14385 4.2565 7.18135H9.67525L9.619 3.31885V3.31885Z" fill="#073042"/>
<path d="M21.5625 20.4939H4.35C3.28125 20.4939 2.4375 19.6314 2.4375 18.5627V5.23145C2.4375 6.3002 3.3 7.1627 4.35 7.18145H18.7688C18.7688 7.18145 21.5813 6.9377 21.5813 9.05645V20.4939H21.5625Z" fill="#4285F4"/>
<path d="M13.5379 13.6685C14.3066 13.0873 14.4566 11.9998 13.8754 11.2498C13.5566 10.8373 13.0691 10.5748 12.5441 10.556H12.6004C12.6941 10.5373 12.8066 10.5373 12.9004 10.556V9.48725C12.9004 9.356 12.8441 9.2435 12.7316 9.18725C12.5629 9.0935 12.3566 9.14975 12.2629 9.3185C12.2254 9.37475 12.2066 9.431 12.2254 9.506V10.5935C11.2879 10.7435 10.6316 11.6248 10.7816 12.581V12.5998C10.8566 13.0498 11.1004 13.4623 11.4754 13.7248L8.30664 20.5123H10.3691L11.8316 17.3998C12.0004 17.0248 12.4504 16.856 12.8441 17.0435C12.9941 17.1185 13.1254 17.2498 13.2004 17.3998L14.7191 20.5123H16.8191L13.5379 13.6685ZM12.4691 13.3685C11.8691 13.3685 11.4004 12.881 11.4004 12.281C11.4004 11.681 11.8879 11.2123 12.4879 11.231C12.7691 11.231 13.0129 11.3435 13.2191 11.531C13.6504 11.9435 13.6504 12.6185 13.2379 13.0498C13.0504 13.2373 12.7691 13.3685 12.4691 13.3685Z" fill="#3870B2"/>
<path d="M8.47461 4.25635H15.8621V5.60635H8.47461V4.25635Z" fill="white"/>
<path d="M11.9064 11.2124C12.4877 11.2124 12.9752 11.6999 12.9564 12.2999C12.9564 12.8812 12.4689 13.3687 11.8689 13.3499C11.2877 13.3499 10.8189 12.8624 10.8189 12.2812C10.8189 11.9999 10.9314 11.7374 11.1377 11.5312C11.3439 11.3249 11.6252 11.2124 11.9064 11.2124V11.2124ZM12.3189 10.5937V9.4687C12.3189 9.33745 12.2627 9.22495 12.1502 9.1687C11.9814 9.07495 11.7752 9.1312 11.6814 9.29995C11.6439 9.3562 11.6252 9.41245 11.6439 9.48745V10.5749C10.7064 10.7249 10.0502 11.6062 10.2002 12.5624V12.5812C10.2752 13.0312 10.5189 13.4437 10.8939 13.7062L6.90017 22.2749C6.75017 22.5749 6.76892 22.9499 6.97517 23.2312C7.27517 23.6624 7.85642 23.7749 8.28767 23.4749C8.43767 23.3812 8.55017 23.2312 8.62517 23.0812L11.2877 17.3812C11.4564 17.0062 11.9064 16.8374 12.3002 17.0249C12.4502 17.0999 12.5814 17.2312 12.6564 17.3812L15.3752 23.0249C15.6002 23.4937 16.1627 23.6812 16.6314 23.4562C17.1002 23.2312 17.2877 22.6687 17.0627 22.1999L12.9564 13.6687C13.7064 13.0687 13.8377 11.9624 13.2377 11.2124C13.0127 10.9124 12.6939 10.7062 12.3189 10.5937" fill="#073042"/>
<path d="M14.7752 5.45625C14.4939 5.45625 14.2689 5.25 14.2689 4.96875C14.2689 4.8375 14.3252 4.6875 14.4189 4.59375C14.6252 4.40625 14.9252 4.40625 15.1314 4.59375C15.2252 4.6875 15.2814 4.81875 15.2814 4.95C15.2627 5.23125 15.0564 5.4375 14.7752 5.45625M9.2252 5.4375C8.94395 5.4375 8.71895 5.2125 8.71895 4.95C8.71895 4.81875 8.7752 4.6875 8.86895 4.59375C9.0377 4.3875 9.35645 4.35 9.5627 4.51875H9.58145C9.7877 4.70625 9.80645 5.025 9.61895 5.23125L9.5627 5.30625C9.46895 5.4 9.3377 5.45625 9.20645 5.45625M14.9252 2.41875L15.9189 0.69375C15.9752 0.6 15.9377 0.4875 15.8627 0.4125C15.7689 0.375 15.6752 0.39375 15.6189 0.46875L14.5877 2.25C12.9377 1.51875 11.0627 1.51875 9.43145 2.25L8.41895 0.4875C8.38145 0.43125 8.30645 0.375 8.23145 0.375C8.15645 0.375 8.08145 0.4125 8.04395 0.4875C8.00645 0.54375 8.00645 0.6375 8.04395 0.69375L9.05645 2.41875C7.29395 3.375 6.1502 5.175 5.98145 7.1625H18.0189C17.8689 5.15625 16.7064 3.375 14.9439 2.41875" fill="#3DDC84"/>
<path d="M19.8 10.8937H19.0125C18.975 10.9124 18.9375 10.9499 18.9375 11.0062V23.4749C18.9375 23.5312 18.975 23.5687 19.0313 23.5687H19.8563C20.8125 23.5687 21.5813 22.7812 21.5813 21.8437V9.1499C21.5813 10.1062 20.8125 10.8749 19.8563 10.8749H19.8V10.8937Z" fill="#073042"/>
</svg>
