<svg width="60" height="60" viewBox="0 0 60 60" fill="none" xmlns="http://www.w3.org/2000/svg">
<path d="M45.8928 31.8212C45.9743 40.6337 53.6243 43.5667 53.7087 43.6042C53.644 43.8105 52.4867 47.7836 49.6789 51.8866C47.2517 55.4341 44.7322 58.9684 40.7642 59.0425C36.8651 59.1137 35.6112 56.7297 31.1529 56.7297C26.6961 56.7297 25.3034 58.9684 21.612 59.1137C17.7814 59.2591 14.8643 55.277 12.417 51.7431C7.41638 44.5131 3.59466 31.3127 8.72606 22.4022C11.2751 17.9772 15.8314 15.1755 20.7762 15.1033C24.5375 15.0316 28.0878 17.6336 30.387 17.6336C32.6848 17.6336 36.9992 14.5042 41.5348 14.9636C43.4337 15.0428 48.7634 15.7305 52.1858 20.7405C51.9106 20.9116 45.8267 24.4534 45.8928 31.8212M38.5648 10.1809C40.5983 7.71953 41.967 4.29203 41.5939 0.882812C38.6623 1.00047 35.1176 2.83609 33.0153 5.29656C31.1309 7.47484 29.4809 10.9623 29.9258 14.3041C33.1934 14.5572 36.5309 12.6438 38.5648 10.1809" fill="black"/>
</svg>
