<svg width="60" height="60" viewBox="0 0 60 60" fill="none" xmlns="http://www.w3.org/2000/svg">
<path d="M7.02391 12.9903C6.91281 9.79572 9.40141 6.8501 12.7656 6.8501H47.2375C50.6017 6.8501 53.0903 9.79572 52.9792 12.9903C52.8723 16.0587 53.0111 20.0337 54.0114 23.2746C55.015 26.5259 56.7072 28.5804 59.4789 28.8448V31.8387C56.7072 32.1031 55.015 34.1576 54.0114 37.4089C53.0111 40.6498 52.8723 44.6248 52.9792 47.6932C53.0903 50.8878 50.6017 53.8329 47.2375 53.8329H12.7656C9.40141 53.8329 6.91281 50.8873 7.02391 47.6932C7.13078 44.6248 6.99203 40.6498 5.99125 37.4089C4.98812 34.1581 3.29125 32.1031 0.519531 31.8387V28.8448C3.29125 28.5809 4.98812 26.5259 5.99125 23.2746C6.99203 20.0337 7.13031 16.0587 7.02391 12.9903V12.9903Z" fill="url(#paint0_linear_156_443)"/>
<g filter="url(#filter0_d_156_443)">
<path d="M31.4574 43.0009C36.9038 43.0009 40.1858 40.3342 40.1858 35.9357C40.1858 32.6109 37.8441 30.2038 34.3669 29.8228V29.6843C36.9216 29.2687 38.9263 26.8963 38.9263 24.2469C38.9263 20.4718 35.9459 18.0127 31.4042 18.0127H21.1855V43.0009H31.4574ZM25.1595 21.1817H30.4463C33.3203 21.1817 34.9523 22.4631 34.9523 24.7836C34.9523 27.26 33.0542 28.6452 29.6125 28.6452H25.1595V21.1817ZM25.1595 39.8319V31.6064H30.4107C34.1717 31.6064 36.1232 32.9917 36.1232 35.6932C36.1232 38.3946 34.225 39.8319 30.6413 39.8319H25.1595Z" fill="url(#paint1_linear_156_443)"/>
<path d="M31.4574 43.0009C36.9038 43.0009 40.1858 40.3342 40.1858 35.9357C40.1858 32.6109 37.8441 30.2038 34.3669 29.8228V29.6843C36.9216 29.2687 38.9263 26.8963 38.9263 24.2469C38.9263 20.4718 35.9459 18.0127 31.4042 18.0127H21.1855V43.0009H31.4574ZM25.1595 21.1817H30.4463C33.3203 21.1817 34.9523 22.4631 34.9523 24.7836C34.9523 27.26 33.0542 28.6452 29.6125 28.6452H25.1595V21.1817ZM25.1595 39.8319V31.6064H30.4107C34.1717 31.6064 36.1232 32.9917 36.1232 35.6932C36.1232 38.3946 34.225 39.8319 30.6413 39.8319H25.1595Z" stroke="white" stroke-width="0.127517"/>
</g>
<defs>
<filter id="filter0_d_156_443" x="19.0818" y="16.4185" width="23.2085" height="29.1963" filterUnits="userSpaceOnUse" color-interpolation-filters="sRGB">
<feFlood flood-opacity="0" result="BackgroundImageFix"/>
<feColorMatrix in="SourceAlpha" type="matrix" values="0 0 0 0 0 0 0 0 0 0 0 0 0 0 0 0 0 0 127 0" result="hardAlpha"/>
<feOffset dy="0.510068"/>
<feGaussianBlur stdDeviation="1.02014"/>
<feColorMatrix type="matrix" values="0 0 0 0 0 0 0 0 0 0 0 0 0 0 0 0 0 0 0.15 0"/>
<feBlend mode="normal" in2="BackgroundImageFix" result="effect1_dropShadow_156_443"/>
<feBlend mode="normal" in="SourceGraphic" in2="effect1_dropShadow_156_443" result="shape"/>
</filter>
<linearGradient id="paint0_linear_156_443" x1="9.28073" y1="8.09352" x2="60.8004" y2="48.9904" gradientUnits="userSpaceOnUse">
<stop stop-color="#9013FE"/>
<stop offset="1" stop-color="#6610F2"/>
</linearGradient>
<linearGradient id="paint1_linear_156_443" x1="22.9833" y1="19.6571" x2="34.4986" y2="39.1329" gradientUnits="userSpaceOnUse">
<stop stop-color="white"/>
<stop offset="1" stop-color="#F1E5FC"/>
</linearGradient>
</defs>
</svg>
