<svg width="60" height="60" viewBox="0 0 60 60" fill="none" xmlns="http://www.w3.org/2000/svg">
<rect x="9.24707" y="2.30713" width="40.745" height="47.5358" rx="20.3725" fill="white"/>
<path d="M4.10645 0.46875L8.81973 53.3827L29.9688 59.2795L51.1769 53.3611L55.8939 0.46875H4.10645ZM46.1022 12.5916L44.5333 30.2189L44.538 30.3141L44.5314 30.533V30.5311L43.4168 42.8564L43.2939 43.9514L30.0002 47.6283V47.6287L29.9899 47.6377L16.7191 43.9402L15.8205 33.75H22.3282L22.7899 38.9316L30.0021 40.8862L30.0002 40.89V40.8891L37.2391 38.9067L38.0041 30.4687H22.8714L22.7416 29.0423L22.4458 25.7006L22.2907 23.9062H38.5793L39.1718 17.3437H14.3627L14.2329 15.9183L13.9375 12.5756L13.7819 10.7812H46.2574L46.1022 12.5916Z" fill="#1572B6"/>
</svg>
