<svg width="50" height="60" viewBox="0 0 50 60" fill="none" xmlns="http://www.w3.org/2000/svg">
<mask id="mask0_156_444" style="mask-type:luminance" maskUnits="userSpaceOnUse" x="0" y="0" width="50" height="60">
<path d="M43.5547 13.4316C43.3984 12.6816 42.6172 12.2043 41.7578 12.3066C41.4453 12.3407 41.1328 12.477 40.8984 12.6816L32.7734 19.7725L26.4062 9.17018C26.0156 8.48836 25.0781 8.24972 24.2969 8.59063C24.0234 8.727 23.7891 8.93155 23.6328 9.17018L20.1562 14.9657L11.4062 0.715593C11.0156 0.0678625 10.0391 -0.204866 9.29687 0.170136C8.86719 0.374683 8.55469 0.749685 8.47656 1.15878L0 48.409L22.6172 59.4886C24.0234 60.1705 25.7812 60.1705 27.1875 59.4886L50 48.409L43.5547 13.4316Z" fill="white"/>
</mask>
<g mask="url(#mask0_156_444)">
<path d="M0 48.4085L8.47656 1.15827C8.59375 0.408267 9.41406 -0.1031 10.2734 0.0332643C10.7422 0.101446 11.1719 0.374175 11.4062 0.749177L20.1562 14.9993L23.6328 9.20377C24.0234 8.52195 24.9609 8.28331 25.7422 8.62422C26.0156 8.76058 26.25 8.96513 26.4062 9.20377L50 48.4085H0Z" fill="#FFA000"/>
<path opacity="0.12" d="M28.9053 0.340659L-12.501 -2.72754V62.7274L-0.000974655 48.4091L28.9053 0.340659Z" fill="url(#paint0_linear_156_444)"/>
<path d="M29.2578 29.9995L20.1562 14.9653L0 48.4087L29.2578 29.9995Z" fill="#F57C00"/>
<path opacity="0.2" d="M-12.501 -2.72754H62.499V62.7274H-12.501V-2.72754Z" fill="url(#paint1_linear_156_444)"/>
<path d="M50 48.4086L43.5156 13.3971C43.3594 12.6471 42.5781 12.1698 41.7188 12.2721C41.4062 12.3061 41.0937 12.4425 40.8594 12.6471L0 48.4086L22.6172 59.4882C24.0234 60.17 25.7812 60.17 27.1875 59.4882L50 48.4086Z" fill="#FFCA28"/>
<path d="M43.5547 13.4316C43.3984 12.6816 42.6172 12.2043 41.7578 12.3066C41.4453 12.3407 41.1328 12.477 40.8984 12.6816L32.7734 19.7725L26.4062 9.17018C26.0156 8.48836 25.0781 8.24972 24.2969 8.59063C24.0234 8.727 23.7891 8.93155 23.6328 9.17018L20.1562 14.9657L11.4062 0.715593C11.0156 0.0678625 10.0391 -0.204866 9.29688 0.170136C8.86719 0.374683 8.55469 0.749685 8.47656 1.15878L2.38046e-06 48.409H-0.0390625L2.38046e-06 48.4431L0.234377 48.5454L32.7734 20.1134L40.8984 13.0225C41.5234 12.477 42.5 12.477 43.125 13.0225C43.3594 13.227 43.5156 13.4657 43.5547 13.7725L49.9609 48.4431L50.0391 48.409L43.5547 13.4316ZM0.0781262 48.3408L8.47656 1.49969C8.59375 0.749685 9.41406 0.238318 10.2734 0.374682C10.7422 0.442864 11.1719 0.715593 11.4062 1.09059L20.1562 15.3407L23.6328 9.54519C24.0234 8.86336 24.9609 8.62473 25.7422 8.96564C26.0156 9.102 26.25 9.30655 26.4062 9.54519L32.6562 19.9089L0.0781262 48.3408Z" fill="white" fill-opacity="0.2"/>
<path opacity="0.2" d="M27.1875 59.1471C25.7812 59.8289 24.0234 59.8289 22.6172 59.1471L0.0390619 48.1016L0 48.4084L22.6172 59.488C24.0234 60.1698 25.7812 60.1698 27.1875 59.488L50 48.4084L49.9609 48.1016L27.1875 59.1471Z" fill="#A52714"/>
<path d="M43.5547 13.4316C43.3984 12.6816 42.6172 12.2043 41.7578 12.3066C41.4453 12.3407 41.1328 12.477 40.8984 12.6816L32.7734 19.7725L26.4062 9.17019C26.0156 8.48836 25.0781 8.24972 24.2969 8.59063C24.0234 8.727 23.7891 8.93155 23.6328 9.17019L20.1562 14.9657L11.4062 0.715593C11.0156 0.0678625 10.0391 -0.204866 9.29687 0.170136C8.86719 0.374683 8.55469 0.749685 8.47656 1.15878L0 48.409L22.6172 59.4886C24.0234 60.1705 25.7812 60.1705 27.1875 59.4886L50 48.409L43.5547 13.4316Z" fill="url(#paint2_linear_156_444)"/>
</g>
<defs>
<linearGradient id="paint0_linear_156_444" x1="9.74195" y1="32.2346" x2="6.81348" y2="30.4814" gradientUnits="userSpaceOnUse">
<stop stop-color="#A52714"/>
<stop offset="0.4" stop-color="#A52714" stop-opacity="0.5"/>
<stop offset="0.8" stop-color="#A52714" stop-opacity="0"/>
</linearGradient>
<linearGradient id="paint1_linear_156_444" x1="23.0229" y1="28.267" x2="21.8136" y2="26.8814" gradientUnits="userSpaceOnUse">
<stop stop-color="#A52714" stop-opacity="0.8"/>
<stop offset="0.5" stop-color="#A52714" stop-opacity="0.21"/>
<stop offset="1" stop-color="#A52714" stop-opacity="0"/>
</linearGradient>
<linearGradient id="paint2_linear_156_444" x1="-1.34612" y1="10.5586" x2="43.8102" y2="62.3" gradientUnits="userSpaceOnUse">
<stop stop-color="white" stop-opacity="0.1"/>
<stop offset="1" stop-color="white" stop-opacity="0"/>
</linearGradient>
</defs>
</svg>
