<svg width="60" height="60" viewBox="0 0 60 60" fill="none" xmlns="http://www.w3.org/2000/svg">
<path d="M35.8108 26.0982C34.5278 26.0982 33.5725 26.7282 33.5725 28.2446C33.5725 29.387 34.202 30.1801 35.7419 30.1801C37.0469 30.1801 37.9338 29.4109 37.9338 28.1973C37.9338 26.822 37.1402 26.0982 35.8108 26.0982V26.0982ZM33.2463 36.8045C32.9425 37.1771 32.6397 37.5732 32.6397 38.0405C32.6397 38.9729 33.8284 39.2532 35.462 39.2532C36.8144 39.2532 38.657 39.1585 38.657 37.9009C38.657 37.1532 37.7702 37.1073 36.6503 37.037L33.2463 36.8045ZM40.1486 26.1685C40.5681 26.7052 41.012 27.4515 41.012 28.5245C41.012 31.1129 38.9828 32.6288 36.0447 32.6288C35.2975 32.6288 34.6211 32.536 34.2016 32.4193L33.4319 33.6554L35.717 33.7946C39.752 34.052 42.1305 34.1687 42.1305 37.2695C42.1305 39.9521 39.7755 41.4671 35.717 41.4671C31.4955 41.4671 29.8867 40.3941 29.8867 38.5524C29.8867 37.5024 30.3536 36.9441 31.1697 36.173C30.3995 35.8477 30.1436 35.2651 30.1436 34.6351C30.1436 34.1218 30.4 33.6554 30.82 33.212C31.24 32.7695 31.7064 32.3255 32.2656 31.8127C31.1228 31.253 30.2603 30.0404 30.2603 28.314C30.2603 25.6323 32.0327 23.7905 35.6008 23.7905C36.6039 23.7905 37.2109 23.8829 37.7467 24.024H42.295V26.0059L40.1486 26.1685V26.1685ZM46.398 21.931C45.0681 21.931 44.2984 21.1609 44.2984 19.831C44.2984 18.503 45.0681 17.7793 46.398 17.7793C47.7508 17.7793 48.52 18.5026 48.52 19.831C48.5205 21.1609 47.7508 21.931 46.398 21.931V21.931ZM43.3886 35.9466V34.1049L44.5788 33.9418C44.905 33.8949 44.9514 33.8251 44.9514 33.4745V26.618C44.9514 26.3621 44.882 26.198 44.6481 26.1287L43.3886 25.6852L43.645 23.7971H48.4736V33.4749C48.4736 33.849 48.4961 33.8949 48.8467 33.9423L50.0364 34.1054V35.9471H43.3886V35.9466ZM59.2591 35.042C58.2555 35.5309 56.7869 35.9748 55.4566 35.9748C52.6816 35.9748 51.6325 34.8563 51.6325 32.2196V26.1095C51.6325 25.9702 51.6325 25.8765 51.4455 25.8765H49.8133V23.8009C51.8664 23.567 52.682 22.5409 52.9384 19.9988H55.1547V23.3115C55.1547 23.4741 55.1547 23.5449 55.3413 23.5449H58.6295V25.877H55.1547V31.4504C55.1547 32.8262 55.4814 33.3624 56.7405 33.3624C57.3944 33.3624 58.0698 33.1998 58.6295 32.9898L59.2591 35.042V35.042Z" fill="#31251C"/>
<path d="M24.7029 28.9219L14.0393 18.2588C13.7444 17.964 13.3445 17.7983 12.9275 17.7983C12.5104 17.7983 12.1105 17.964 11.8156 18.2588L9.6012 20.4732L12.4095 23.2819C12.7397 23.1696 13.0948 23.1521 13.4345 23.2313C13.7741 23.3105 14.0848 23.4833 14.3314 23.7301C14.5793 23.9782 14.7525 24.2912 14.831 24.6331C14.9095 24.975 14.8902 25.3322 14.7753 25.6636L17.4823 28.3707C17.8824 28.2313 18.318 28.2319 18.7177 28.3725C19.1173 28.5131 19.4574 28.7853 19.6821 29.1444C19.9069 29.5036 20.0029 29.9285 19.9545 30.3494C19.9062 30.7703 19.7162 31.1623 19.4159 31.4611C19.1101 31.7675 18.7076 31.9584 18.2769 32.0013C17.8462 32.0442 17.414 31.9365 17.0538 31.6965C16.6936 31.4564 16.4277 31.099 16.3015 30.685C16.1753 30.2709 16.1965 29.826 16.3615 29.4258L13.8368 26.9011L13.8364 33.5452C14.1028 33.6768 14.3342 33.87 14.5111 34.1088C14.6881 34.3476 14.8056 34.6251 14.854 34.9184C14.9024 35.2116 14.8802 35.5122 14.7893 35.7952C14.6984 36.0782 14.5414 36.3354 14.3314 36.5457C14.1355 36.7415 13.8985 36.8914 13.6377 36.9846C13.3768 37.0778 13.0985 37.1119 12.8229 37.0845C12.5472 37.057 12.2811 36.9688 12.0437 36.8261C11.8063 36.6833 11.6035 36.4897 11.45 36.2591C11.2965 36.0285 11.1961 35.7668 11.1561 35.4927C11.116 35.2186 11.1373 34.939 11.2183 34.6741C11.2994 34.4093 11.4382 34.1657 11.6249 33.961C11.8115 33.7563 12.0412 33.5955 12.2975 33.4904V26.7849C12.0689 26.6913 11.8612 26.5534 11.6863 26.3791C11.5113 26.2048 11.3726 25.9975 11.2782 25.7694C11.1837 25.5412 11.1354 25.2965 11.136 25.0496C11.1366 24.8026 11.1861 24.5582 11.2817 24.3305L8.51323 21.5611L1.2012 28.8727C1.05506 29.0188 0.939133 29.1922 0.860038 29.3831C0.780944 29.574 0.740234 29.7786 0.740234 29.9853C0.740234 30.1919 0.780944 30.3965 0.860038 30.5874C0.939133 30.7783 1.05506 30.9518 1.2012 31.0979L11.8648 41.761C12.1599 42.0559 12.56 42.2215 12.9771 42.2215C13.3943 42.2215 13.7944 42.0559 14.0895 41.761L24.7029 31.1466C24.849 31.0006 24.965 30.8272 25.0441 30.6363C25.1231 30.4454 25.1639 30.2409 25.1639 30.0343C25.1639 29.8277 25.1231 29.6231 25.0441 29.4322C24.965 29.2414 24.849 29.068 24.7029 28.9219V28.9219Z" fill="#F34F29"/>
</svg>
