<svg width="60" height="60" viewBox="0 0 60 60" fill="none" xmlns="http://www.w3.org/2000/svg">
<path fill-rule="evenodd" clip-rule="evenodd" d="M30.0002 2.39209C14.3688 2.39209 1.69336 15.0647 1.69336 30.699C1.69336 43.2062 9.80414 53.8163 21.0513 57.5597C22.4655 57.8222 22.9849 56.9457 22.9849 56.198C22.9849 55.523 22.9587 53.2932 22.9465 50.9279C15.0715 52.6402 13.4098 47.588 13.4098 47.588C12.1221 44.3162 10.2668 43.4462 10.2668 43.4462C7.69805 41.6893 10.4604 41.7258 10.4604 41.7258C13.3024 41.9251 14.7996 44.6429 14.7996 44.6429C17.3243 48.9694 21.4216 47.7188 23.037 46.996C23.291 45.1665 24.0246 43.9172 24.8341 43.2104C18.5468 42.4955 11.937 40.0679 11.937 29.2215C11.937 26.131 13.0432 23.6058 14.854 21.623C14.5596 20.9105 13.5907 18.0315 15.1277 14.1324C15.1277 14.1324 17.5043 13.3716 22.9137 17.034C25.1721 16.4063 27.5941 16.0908 30.0002 16.0801C32.4049 16.0908 34.8284 16.4054 37.091 17.033C42.4938 13.3707 44.8676 14.1315 44.8676 14.1315C46.4084 18.0301 45.4395 20.9096 45.1455 21.6221C46.9605 23.6049 48.0588 26.1301 48.0588 29.2205C48.0588 40.0927 41.4368 42.4862 35.1335 43.1874C36.1493 44.0658 37.054 45.789 37.054 48.4294C37.054 52.2169 37.0212 55.2652 37.0212 56.1976C37.0212 56.9508 37.5312 57.8335 38.9655 57.5555C50.2062 53.8083 58.3076 43.2015 58.3076 30.699C58.3071 15.0657 45.633 2.39256 30.0002 2.39256V2.39209Z" fill="#181616"/>
<path d="M12.4149 43.0343C12.3525 43.175 12.1313 43.2172 11.9297 43.1211C11.7234 43.0292 11.6086 42.8375 11.6752 42.6964C11.7361 42.5511 11.9578 42.5112 12.1627 42.6083C12.3689 42.7006 12.4861 42.8942 12.4144 43.0348L12.4149 43.0343ZM13.5614 44.3136C13.4269 44.4387 13.163 44.3806 12.9839 44.1823C12.7983 43.9854 12.7636 43.7215 12.9009 43.5945C13.0406 43.4698 13.2966 43.5289 13.4822 43.7258C13.6669 43.9254 13.7034 44.187 13.5619 44.314L13.5614 44.3136ZM14.678 45.9434C14.5045 46.0644 14.2205 45.9514 14.0452 45.6997C13.8717 45.4475 13.8717 45.1451 14.0499 45.0247C14.2247 44.9037 14.5045 45.0129 14.6827 45.2623C14.8552 45.5178 14.8552 45.8201 14.678 45.9429V45.9434ZM16.2066 47.5189C16.0519 47.69 15.7209 47.644 15.4791 47.4111C15.232 47.1828 15.1631 46.8579 15.3183 46.6873C15.4758 46.5158 15.8081 46.5636 16.0514 46.7951C16.2984 47.0229 16.373 47.3483 16.2075 47.5184L16.2066 47.5189ZM18.3159 48.4334C18.247 48.6551 17.9292 48.7559 17.6081 48.6612C17.288 48.5642 17.0784 48.305 17.1441 48.0809C17.2097 47.8573 17.5299 47.7528 17.8528 47.8536C18.173 47.9501 18.3825 48.2079 18.3159 48.4334ZM20.633 48.6026C20.6409 48.8361 20.3691 49.0292 20.033 49.0339C19.6941 49.0419 19.4199 48.8525 19.4166 48.6228C19.4166 48.387 19.6828 48.1962 20.0213 48.1897C20.3574 48.1836 20.6334 48.3711 20.6334 48.6022L20.633 48.6026ZM22.7883 48.2361C22.8286 48.4634 22.5947 48.6973 22.2605 48.7597C21.9324 48.8206 21.6277 48.679 21.5855 48.4536C21.5452 48.2201 21.7833 47.9862 22.1114 47.9258C22.4461 47.8681 22.7461 48.0054 22.7883 48.2365V48.2361Z" fill="#181616"/>
</svg>
