<svg width="60" height="60" viewBox="0 0 60 60" fill="none" xmlns="http://www.w3.org/2000/svg">
<rect x="8.11523" y="9.33398" width="43.8765" height="44.4006" fill="white"/>
<path fill-rule="evenodd" clip-rule="evenodd" d="M48.117 18H48.0932H19.3733L20.0601 24H47.4336C47.0324 29.256 45.8186 40.3915 45.3732 45.4585L29.9983 49.3535V49.3652L29.9643 49.3799L14.5792 44.5078L13.5252 33H21.0665L21.6003 39.189L29.9779 42H29.9983L38.3623 39.3003L39.2225 30H13.1886C13.0628 28.797 11.4444 13.176 11.1622 12H48.7902C48.5794 13.98 48.3652 16.014 48.117 18ZM0 0L5.46042 54.4438L29.9643 60L54.5328 54.3325L60 0H0Z" fill="#F16529"/>
</svg>
