<svg width="24" height="24" viewBox="0 0 24 24" fill="none" xmlns="http://www.w3.org/2000/svg">
<path d="M9.85887 12.7155C9.85887 12.7155 9.24312 13.0738 10.2978 13.1949C11.5754 13.3408 12.2285 13.3198 13.6362 13.0538C13.6362 13.0538 14.0073 13.2857 14.5241 13.4867C11.3673 14.8391 7.37956 13.4083 9.85887 12.7155ZM9.4728 10.9502C9.4728 10.9502 8.78205 11.4619 9.83749 11.571C11.2025 11.7118 12.2801 11.7234 14.1461 11.3642C14.1461 11.3642 14.4035 11.6259 14.8091 11.7686C10.9931 12.885 6.74262 11.8566 9.4728 10.9502V10.9502Z" fill="#0074BD"/>
<path d="M12.7249 7.95604C13.5032 8.85191 12.5209 9.65741 12.5209 9.65741C12.5209 9.65741 14.4959 8.63798 13.5889 7.36091C12.7416 6.17048 12.0923 5.57929 15.6085 3.54004C15.6087 3.54004 10.0889 4.91816 12.7249 7.95604Z" fill="#EA2D2E"/>
<path d="M16.8997 14.0215C16.8997 14.0215 17.3557 14.3974 16.3976 14.688C14.5758 15.2398 8.81435 15.4063 7.21403 14.71C6.63916 14.4596 7.71785 14.1124 8.05703 14.0395C8.41085 13.9628 8.61297 13.9768 8.61297 13.9768C7.97322 13.5263 4.47766 14.8616 6.83753 15.2447C13.2733 16.2878 18.5688 14.7748 16.8997 14.0215V14.0215ZM10.1553 9.12134C10.1553 9.12134 7.22491 9.81752 9.11772 10.0706C9.91722 10.1775 11.5098 10.153 12.9945 10.0285C14.2074 9.92665 15.4247 9.70896 15.4247 9.70896C15.4247 9.70896 14.9973 9.89234 14.6878 10.1035C11.7114 10.8863 5.96285 10.5216 7.61791 9.72134C9.01722 9.04427 10.1553 9.12134 10.1553 9.12134V9.12134ZM15.4125 12.0595C18.4378 10.4878 17.0388 8.97734 16.0625 9.18077C15.8238 9.23065 15.7166 9.27377 15.7166 9.27377C15.7166 9.27377 15.8057 9.13427 15.975 9.07446C17.9066 8.39571 19.3918 11.0771 15.3521 12.1391C15.3521 12.1391 15.3984 12.0971 15.4125 12.0595Z" fill="#0074BD"/>
<path d="M13.5887 0.246094C13.5887 0.246094 15.2641 1.92216 11.9995 4.49897C9.38162 6.56653 11.4025 7.74516 11.9984 9.09234C10.4702 7.71347 9.34937 6.49959 10.1012 5.37009C11.2054 3.71222 14.2645 2.90803 13.5887 0.246094V0.246094Z" fill="#EA2D2E"/>
<path d="M10.4525 16.3199C13.3557 16.5055 17.8154 16.2166 17.921 14.8428C17.921 14.8428 17.7181 15.3635 15.5212 15.7767C13.0428 16.2432 9.9856 16.189 8.17285 15.8898C8.17285 15.8898 8.5441 16.1973 10.4525 16.3199V16.3199Z" fill="#0074BD"/>
<path d="M17.7875 18.7839H17.699V18.7344H17.9372V18.7839H17.849V19.0308H17.7874L17.7875 18.7839V18.7839ZM18.2629 18.7962H18.2617L18.174 19.0308H18.1335L18.0463 18.7962H18.0454V19.0308H17.9869V18.7344H18.0725L18.1534 18.9442L18.2344 18.7344H18.3195V19.0308H18.2629V18.7962V18.7962ZM9.97723 21.5694C9.70348 21.8067 9.41398 21.9402 9.15391 21.9402C8.78379 21.9402 8.58298 21.7179 8.58298 21.3618C8.58298 20.9765 8.79785 20.6943 9.65885 20.6943H9.97704V21.5694H9.97723ZM10.733 22.4221V19.7827C10.733 19.1079 10.3481 18.6627 9.4211 18.6627C8.87998 18.6627 8.4056 18.7966 8.01991 18.9669L8.13091 19.4343C8.43466 19.3227 8.82748 19.2192 9.21298 19.2192C9.74735 19.2192 9.97704 19.4343 9.97704 19.8794V20.213H9.71004C8.41235 20.213 7.82679 20.7164 7.82679 21.4736C7.82679 22.1259 8.21266 22.4966 8.93923 22.4966C9.4061 22.4966 9.75504 22.3038 10.0807 22.0216L10.14 22.4223H10.733V22.4221V22.4221ZM13.2553 22.4221H12.3127L11.1782 18.7304H12.0015L12.7057 20.999L12.8623 21.6806C13.2178 20.6947 13.4698 19.6938 13.5958 18.7306H14.3966C14.1823 19.9458 13.796 21.2802 13.2553 22.4221V22.4221ZM16.8718 21.5694C16.5971 21.8067 16.3074 21.9402 16.0483 21.9402C15.6778 21.9402 15.4772 21.7179 15.4772 21.3618C15.4772 20.9765 15.6926 20.6943 16.5527 20.6943H16.8716V21.5694H16.8718ZM17.628 22.4221V19.7827C17.628 19.1079 17.2419 18.6627 16.3157 18.6627C15.774 18.6627 15.2998 18.7966 14.9141 18.9669L15.0253 19.4343C15.329 19.3227 15.7224 19.2192 16.1079 19.2192C16.6415 19.2192 16.8718 19.4343 16.8718 19.8794V20.213H16.6048C15.3067 20.213 14.7214 20.7164 14.7214 21.4736C14.7214 22.1259 15.1069 22.4966 15.8332 22.4966C16.3003 22.4966 16.6487 22.3038 16.9753 22.0216L17.0349 22.4223H17.628V22.4221V22.4221ZM6.99804 23.0495C6.78298 23.3643 6.4346 23.6135 6.0536 23.7539L5.68066 23.3142C5.97073 23.1654 6.21916 22.9252 6.33485 22.7013C6.4346 22.502 6.47604 22.2457 6.47604 21.6324V17.417H7.27929V21.5744C7.27929 22.3947 7.21404 22.7264 6.99804 23.0495Z" fill="#EA2D2E"/>
</svg>
