<svg width="60" height="60" viewBox="0 0 60 60" fill="none" xmlns="http://www.w3.org/2000/svg">
<path d="M0.660156 0.660156H59.3402V59.3406H0.660156V0.660156Z" fill="#F0DB4F"/>
<path d="M54.5379 45.3453C54.108 42.6682 52.3624 40.4197 47.1916 38.3229C45.3954 37.4975 43.3928 36.9064 42.7961 35.5451C42.5843 34.7529 42.5561 34.3067 42.6902 33.8272C43.075 32.2709 44.9327 31.7857 46.405 32.232C47.3533 32.5498 48.251 33.2806 48.7924 34.4464C51.3246 32.8067 51.3194 32.8175 53.0875 31.6906C52.4402 30.687 52.0947 30.2239 51.671 29.7945C50.148 28.0934 48.0729 27.2173 44.7541 27.2843L43.0254 27.5079C41.3688 27.9265 39.79 28.7961 38.8643 29.9618C36.0864 33.1137 36.8786 38.63 40.2588 40.9001C43.5888 43.3995 48.4807 43.9681 49.1055 46.3053C49.7135 49.1665 47.0027 50.0928 44.3083 49.7637C42.3227 49.3507 41.2183 48.3415 40.0244 46.5064C37.8269 47.7781 37.8269 47.7781 35.5675 49.0775C36.1033 50.2489 36.6663 50.779 37.5644 51.7939C41.815 56.1054 52.4519 55.8936 54.3597 49.3676C54.4371 49.1436 54.9508 47.6492 54.5379 45.3453V45.3453ZM32.5605 27.6298H27.0719L27.0494 41.8198C27.0494 44.8376 27.2055 47.6042 26.7147 48.4522C25.9118 50.12 23.831 49.9132 22.8827 49.5898C21.9175 49.1154 21.4268 48.4409 20.8582 47.4875C20.7021 47.2137 20.5849 47.0018 20.5455 46.9854L16.083 49.7182C16.825 51.2412 17.9182 52.5631 19.3183 53.4218C21.4099 54.6772 24.221 55.062 27.161 54.387C29.0744 53.8297 30.7254 52.6751 31.5897 50.9178C32.8394 48.6139 32.5713 45.8253 32.56 42.7409C32.5882 37.7089 32.5605 32.6778 32.5605 27.6298V27.6298Z" fill="#323330"/>
</svg>
