<svg width="60" height="60" viewBox="0 0 60 60" fill="none" xmlns="http://www.w3.org/2000/svg">
<circle cx="30" cy="30" r="30" fill="white"/>
<path fill-rule="evenodd" clip-rule="evenodd" d="M31.7931 56.9698L30.3894 56.4902C30.3894 56.4902 30.5608 49.3344 27.9929 48.8209C26.281 46.8351 28.2668 -35.4057 34.4295 48.547C34.4295 48.547 32.3069 49.6083 31.9302 51.423C31.5192 53.2035 31.7931 56.9698 31.7931 56.9698Z" fill="white"/>
<path fill-rule="evenodd" clip-rule="evenodd" d="M31.7931 56.9698L30.3894 56.4902C30.3894 56.4902 30.5608 49.3344 27.9929 48.8209C26.281 46.8351 28.2668 -35.4057 34.4295 48.547C34.4295 48.547 32.3069 49.6083 31.9302 51.423C31.5192 53.2035 31.7931 56.9698 31.7931 56.9698Z" fill="#A6A385"/>
<path fill-rule="evenodd" clip-rule="evenodd" d="M32.5468 50.0534C32.5468 50.0534 44.8384 41.9731 41.9623 25.1619C39.1891 12.9389 32.6493 8.93306 31.9305 7.39221C31.1431 6.29664 30.3896 4.37939 30.3896 4.37939L30.9035 38.3779C30.9035 38.4122 29.8419 48.7865 32.5468 50.0534Z" fill="white"/>
<path fill-rule="evenodd" clip-rule="evenodd" d="M32.5468 50.0534C32.5468 50.0534 44.8384 41.9731 41.9623 25.1619C39.1891 12.9389 32.6493 8.93306 31.9305 7.39221C31.1431 6.29664 30.3896 4.37939 30.3896 4.37939L30.9035 38.3779C30.9035 38.4122 29.8419 48.7865 32.5468 50.0534Z" fill="#499D4A"/>
<path fill-rule="evenodd" clip-rule="evenodd" d="M29.6709 50.4983C29.6709 50.4983 18.1325 42.6233 18.8174 28.757C19.4677 14.8904 27.6166 8.077 29.1914 6.84433C30.2187 5.74876 30.253 5.33776 30.3215 4.24219C31.0404 5.78303 30.9036 27.2847 31.0061 29.8183C31.3143 39.5762 30.4583 48.6496 29.6709 50.4983Z" fill="white"/>
<path fill-rule="evenodd" clip-rule="evenodd" d="M29.6709 50.4983C29.6709 50.4983 18.1325 42.6233 18.8174 28.757C19.4677 14.8904 27.6166 8.077 29.1914 6.84433C30.2187 5.74876 30.253 5.33776 30.3215 4.24219C31.0404 5.78303 30.9036 27.2847 31.0061 29.8183C31.3143 39.5762 30.4583 48.6496 29.6709 50.4983Z" fill="#58AA50"/>
</svg>
