<svg width="60" height="60" viewBox="0 0 60 60" fill="none" xmlns="http://www.w3.org/2000/svg">
<circle cx="30" cy="30" r="30" fill="white"/>
<path d="M16.0328 22.2881H25.6352V23.0451H16.9094V28.7826H25.1172V29.5396H16.9094V35.835H25.7547V36.592H16.0328V22.2881ZM26.5117 22.2881H27.5477L32.0898 28.5834L36.6719 22.2881L42.9672 14.3193L32.6078 29.2607L37.9469 36.592H36.8711L32.05 29.8982L27.1891 36.592H26.1531L31.532 29.2607L26.5117 22.2881ZM38.3453 23.0451V22.2881H49.3023V23.0451H44.2422V36.592H43.3656V23.0451H38.3453ZM4 22.2881H5.07578L20.2961 44.9193L14.0008 36.592L4.91641 23.3639L4.87656 36.592H4V22.2881ZM49.2227 35.5959C49.4219 35.5959 49.5414 35.4764 49.5414 35.2771C49.5414 35.0779 49.4219 34.9584 49.2227 34.9584C49.0234 34.9584 48.9039 35.0779 48.9039 35.2771C48.9039 35.4764 49.0633 35.5959 49.2227 35.5959ZM50.0992 34.7592C50.0992 35.2771 50.4977 35.6357 51.0555 35.6357C51.6531 35.6357 52.0117 35.2771 52.0117 34.6396V32.4482H51.5336V34.6396C51.5336 34.9982 51.3742 35.1576 51.0555 35.1576C50.7766 35.1576 50.5773 34.9982 50.5773 34.7193H50.0992V34.7592ZM52.6094 34.7193C52.6492 35.2771 53.0875 35.6357 53.8047 35.6357C54.5219 35.6357 55 35.2771 55 34.6795C55 34.2014 54.7211 33.9623 54.1234 33.8029L53.7648 33.7232C53.3664 33.6436 53.207 33.4842 53.207 33.285C53.207 33.0061 53.4461 32.8068 53.8445 32.8068C54.2031 32.8068 54.4422 32.9662 54.482 33.285H54.9602C54.9203 32.767 54.482 32.4084 53.8445 32.4084C53.1672 32.4084 52.7289 32.767 52.7289 33.3248C52.7289 33.7631 52.968 34.042 53.5258 34.1615L53.9242 34.2412C54.3227 34.3209 54.5219 34.4803 54.5219 34.7193C54.5219 34.9982 54.243 35.1975 53.8445 35.1975C53.4461 35.1975 53.1273 34.9982 53.0875 34.7193H52.6094Z" fill="black"/>
</svg>
