<svg width="60" height="60" viewBox="0 0 60 60" fill="none" xmlns="http://www.w3.org/2000/svg">
<circle cx="30" cy="30" r="30" fill="white"/>
<path d="M52.0173 36.6969C51.8904 36.6969 51.7644 36.6642 51.6533 36.6006L50.4939 35.9269C50.3207 35.8319 50.4051 35.798 50.4624 35.7786C50.6934 35.6996 50.7402 35.6811 50.9865 35.5445C51.0123 35.5303 51.046 35.5354 51.0727 35.5509L51.963 36.0704C51.9796 36.0791 51.9981 36.0836 52.0168 36.0836C52.0356 36.0836 52.0541 36.0791 52.0707 36.0704L55.5431 34.102C55.5594 34.0925 55.573 34.079 55.5823 34.0628C55.5917 34.0466 55.5966 34.0283 55.5965 34.0096V30.0737C55.5965 30.0548 55.5915 30.0362 55.5821 30.0197C55.5727 30.0032 55.5591 29.9894 55.5427 29.9796L52.0715 28.0129C52.0551 28.004 52.0367 27.9994 52.0179 27.9994C51.9992 27.9994 51.9808 28.004 51.9643 28.0129L48.4937 29.98C48.4772 29.9898 48.4635 30.0035 48.454 30.0199C48.4444 30.0363 48.4392 30.0548 48.439 30.0737V34.0096C48.439 34.0474 48.4604 34.0831 48.4937 34.1007L49.4448 34.6408C49.961 34.8939 50.2773 34.5957 50.2773 34.2958V30.4093C50.2773 30.3547 50.3224 30.3113 50.378 30.3113H50.8185C50.8732 30.3113 50.9187 30.3547 50.9187 30.4093V34.2958C50.9187 34.9721 50.5438 35.3601 49.8906 35.3601C49.6898 35.3601 49.5318 35.3601 49.0908 35.147L48.1804 34.6322C48.0696 34.5688 47.9778 34.478 47.9139 34.3688C47.85 34.2597 47.8164 34.136 47.8164 34.01V30.0741C47.8164 29.8184 47.9551 29.58 48.1804 29.4528L51.6528 27.4818C51.7647 27.422 51.8901 27.3906 52.0175 27.3906C52.1449 27.3906 52.2703 27.422 52.3822 27.4818L55.8546 29.4528C56.0795 29.5804 56.219 29.8189 56.219 30.0741V34.01C56.2188 34.136 56.1851 34.2596 56.1211 34.3688C56.0572 34.4779 55.9653 34.5688 55.8546 34.6322L52.3822 36.6011C52.2713 36.6642 52.1454 36.6973 52.0173 36.6969ZM53.0905 33.9851C51.5702 33.9851 51.2521 33.2998 51.2521 32.7253C51.2522 32.6991 51.2629 32.6741 51.2817 32.6557C51.3006 32.6372 51.3261 32.6269 51.3527 32.6269H51.8016C51.8256 32.6268 51.8489 32.6352 51.8672 32.6504C51.8855 32.6657 51.8976 32.6869 51.9013 32.7102C51.9687 33.1593 52.1713 33.3857 53.0905 33.3857C53.8215 33.3857 54.133 33.2233 54.133 32.8417C54.133 32.6217 54.0447 32.4589 52.908 32.3493C51.9578 32.2569 51.3702 32.0511 51.3702 31.3039C51.3702 30.6159 51.9608 30.2052 52.9505 30.2052C54.063 30.2052 54.6134 30.5846 54.683 31.3984C54.6841 31.4121 54.6823 31.4259 54.6778 31.4389C54.6733 31.4519 54.6661 31.4638 54.6567 31.474C54.6472 31.4838 54.6358 31.4916 54.6232 31.497C54.6106 31.5024 54.597 31.5052 54.5832 31.5054H54.1322C54.1094 31.5054 54.0873 31.4978 54.0696 31.4838C54.0518 31.4698 54.0395 31.4503 54.0346 31.4285C53.9261 30.9558 53.6636 30.805 52.95 30.805C52.1516 30.805 52.0588 31.0787 52.0588 31.2828C52.0588 31.5308 52.1682 31.6029 53.2467 31.743C54.3137 31.8818 54.8208 32.0777 54.8208 32.8147C54.8212 33.5593 54.1903 33.9851 53.0905 33.9851Z" fill="#83CD29"/>
<path d="M44.8667 31.4033C45.0037 31.3247 45.0881 31.1812 45.0881 31.0252V30.0137C45.0881 29.8582 45.0041 29.7147 44.8667 29.636L41.2075 27.5495C41.1398 27.5108 41.063 27.4904 40.9847 27.4902C40.9064 27.4901 40.8295 27.5102 40.7617 27.5486L37.0797 29.6365C37.0121 29.6748 36.9561 29.73 36.9171 29.7963C36.8781 29.8627 36.8575 29.938 36.8574 30.0146V34.1894C36.8574 34.3463 36.9432 34.4915 37.0823 34.5693L40.7411 36.6167C40.8759 36.6928 41.0412 36.6932 41.1773 36.6193L43.3902 35.411C43.4246 35.3922 43.4534 35.3648 43.4735 35.3315C43.4936 35.2983 43.5043 35.2603 43.5046 35.2216C43.5048 35.1829 43.4946 35.1449 43.475 35.1113C43.4553 35.0778 43.427 35.05 43.3928 35.0307L39.688 32.9425C39.6541 32.9234 39.6258 32.8959 39.6061 32.8627C39.5865 32.8295 39.5761 32.7918 39.576 32.7534V31.4446C39.576 31.3664 39.6185 31.2946 39.6872 31.2559L40.8409 30.6028C40.8745 30.5836 40.9128 30.5735 40.9518 30.5735C40.9907 30.5735 41.029 30.5836 41.0627 30.6028L42.2164 31.2559C42.2502 31.275 42.2783 31.3024 42.2979 31.3356C42.3175 31.3687 42.3278 31.4063 42.3279 31.4446V32.4741C42.3277 32.5126 42.3379 32.5505 42.3574 32.5839C42.3769 32.6172 42.4051 32.645 42.439 32.6642C42.473 32.6834 42.5115 32.6934 42.5507 32.6932C42.5899 32.6931 42.6284 32.6827 42.6622 32.6632L44.8667 31.4033Z" fill="#404137"/>
<path d="M40.9306 31.2077C40.9437 31.2005 40.9584 31.1968 40.9733 31.1968C40.9882 31.1968 41.0029 31.2005 41.016 31.2077L41.7225 31.6086C41.7488 31.6236 41.765 31.6515 41.765 31.6812V32.4826C41.765 32.5126 41.7488 32.5401 41.7225 32.5552L41.016 32.9557C41.003 32.963 40.9883 32.9669 40.9733 32.9669C40.9583 32.9669 40.9436 32.963 40.9306 32.9557L40.2245 32.5552C40.2115 32.5479 40.2006 32.5373 40.1931 32.5246C40.1856 32.5118 40.1816 32.4973 40.1816 32.4826V31.6812C40.1816 31.6515 40.1978 31.6236 40.2245 31.6086L40.9306 31.2077Z" fill="#83CD29"/>
<path d="M31.3486 32.8746C31.3486 32.9133 31.3276 32.9493 31.2931 32.9691L30.0287 33.685C30.0118 33.6947 29.9927 33.6998 29.9731 33.6998C29.9536 33.6998 29.9344 33.6947 29.9176 33.685L28.6532 32.9691C28.6363 32.9595 28.6223 32.9457 28.6126 32.9291C28.6028 32.9125 28.5977 32.8937 28.5976 32.8746V31.4403C28.5976 31.4016 28.6191 31.3651 28.6532 31.3453L29.9176 30.6286C29.9344 30.6187 29.9537 30.6134 29.9733 30.6134C29.993 30.6134 30.0123 30.6187 30.0291 30.6286L31.2939 31.3453C31.3107 31.3551 31.3246 31.369 31.3342 31.3857C31.3439 31.4023 31.349 31.4211 31.3491 31.4403V32.8746H31.3486ZM31.6903 22.2544C31.6564 22.2362 31.6183 22.227 31.5796 22.2276C31.541 22.2282 31.5032 22.2386 31.4699 22.2578C31.4366 22.277 31.4089 22.3044 31.3896 22.3372C31.3702 22.3701 31.3599 22.4073 31.3596 22.4452V27.9946C31.3594 28.0214 31.3522 28.0477 31.3387 28.0709C31.3251 28.0941 31.3056 28.1134 31.2821 28.127C31.2584 28.1403 31.2316 28.1473 31.2042 28.1473C31.1769 28.1473 31.1501 28.1403 31.1264 28.127L30.2041 27.6049C30.1366 27.5667 30.06 27.5466 29.9821 27.5466C29.9042 27.5466 29.8276 27.5667 29.7601 27.6049L26.0772 29.6923C26.0095 29.7307 25.9533 29.7859 25.9142 29.8523C25.8751 29.9188 25.8545 29.9941 25.8545 30.0709V34.247C25.8545 34.403 25.9394 34.5469 26.0767 34.6256L29.7596 36.7143C29.897 36.7925 30.0667 36.7925 30.2046 36.7143L33.8883 34.6256C33.9558 34.5871 34.0119 34.5319 34.0509 34.4654C34.0899 34.399 34.1105 34.3237 34.1106 34.247V23.837C34.1106 23.6788 34.0231 23.5327 33.8826 23.4554L31.6903 22.2544Z" fill="#404137"/>
<path d="M18.729 27.5264C18.7966 27.488 18.8732 27.4678 18.9513 27.4678C19.0293 27.4678 19.106 27.488 19.1735 27.5264L22.8564 29.6134C22.9938 29.6916 23.0786 29.836 23.0786 29.9919V34.1694C23.0786 34.3253 22.9938 34.4697 22.8564 34.5479L19.1739 36.6366C19.1063 36.6749 19.0296 36.695 18.9515 36.695C18.8734 36.695 18.7967 36.6749 18.729 36.6366L15.0474 34.5479C14.9799 34.5094 14.9239 34.4542 14.8849 34.3878C14.8459 34.3214 14.8253 34.246 14.8252 34.1694V29.9915C14.8252 29.836 14.9101 29.6916 15.0474 29.6134L18.729 27.5264Z" fill="#83CD29"/>
<path d="M12.0319 29.957C12.0319 29.7997 11.9479 29.6554 11.8096 29.5776L8.12805 27.4966C8.06622 27.4614 7.99648 27.4418 7.92505 27.4395H7.88698C7.81556 27.4418 7.74584 27.4614 7.68398 27.4966L4.00198 29.5776C3.93425 29.6161 3.87802 29.6714 3.83893 29.738C3.79985 29.8046 3.77928 29.8801 3.7793 29.957L3.78717 35.5601C3.78717 35.6383 3.82873 35.7109 3.8983 35.7488C3.93161 35.7686 3.96981 35.7791 4.00877 35.7791C4.04772 35.7791 4.08593 35.7686 4.11923 35.7488L6.30673 34.5181C6.44498 34.4373 6.52942 34.2951 6.52942 34.1391V31.5215C6.52942 31.3651 6.61342 31.2211 6.75123 31.1429L7.68311 30.6161C7.75046 30.5773 7.82724 30.5569 7.90536 30.5573C7.98148 30.5573 8.05936 30.5762 8.12717 30.6161L9.05817 31.1429C9.19598 31.2211 9.28086 31.3651 9.28086 31.5215V34.1391C9.28086 34.2951 9.36617 34.4382 9.50355 34.5181L11.691 35.7488C11.7248 35.7677 11.763 35.7776 11.8018 35.7775C11.8407 35.7774 11.8788 35.7673 11.9125 35.7482C11.9461 35.7292 11.9741 35.7017 11.9936 35.6687C12.013 35.6357 12.0234 35.5983 12.0235 35.5601L12.0319 29.957Z" fill="#404137"/>
</svg>
