<svg width="65" height="60" viewBox="0 0 65 60" fill="none" xmlns="http://www.w3.org/2000/svg">
<path d="M38.3049 29.9447C38.3049 26.6345 35.7064 23.9507 32.5006 23.9507C29.2952 23.9507 26.6963 26.6345 26.6963 29.9447C26.6963 33.2553 29.2952 35.9389 32.5006 35.9389C35.7064 35.9389 38.3049 33.2553 38.3049 29.9447Z" fill="#53C1DE"/>
<path fill-rule="evenodd" clip-rule="evenodd" d="M51.3509 18.8162C52.5765 13.6726 54.1173 4.13418 48.6859 0.900367C43.2798 -2.31935 36.2449 3.85022 32.5301 7.55349C28.8262 3.88712 21.5937 -2.25607 16.1669 0.988012C10.7629 4.21853 12.4294 13.5988 13.6823 18.7747C8.64134 20.2532 0 23.4378 0 29.9444C0 36.4325 8.63235 39.8972 13.6435 41.3744C12.3859 46.5789 10.8029 55.8251 16.2138 59.0485C21.6608 62.292 28.8708 56.295 32.62 52.5512C36.3586 56.2763 43.326 62.3125 48.7331 59.0802C54.1571 55.8376 52.7445 46.4271 51.4915 41.2211C56.3492 39.7408 65 36.3515 65 29.9444C65 23.5004 56.3123 20.2899 51.3509 18.8162ZM50.7351 38.4623C49.9124 35.7729 48.802 32.913 47.4437 29.9587C48.7403 27.0741 49.8076 24.2511 50.6073 21.579C54.2445 22.668 62.2234 25.1568 62.2234 29.9444C62.2234 34.7769 54.5666 37.2893 50.7351 38.4623ZM47.3417 56.5985C43.3073 59.01 37.3146 53.2375 34.5536 50.4944C36.3853 48.4255 38.2157 46.0205 40.0021 43.3498C43.1446 43.062 46.1132 42.5912 48.8055 41.9485C49.6873 45.6309 51.3938 54.1761 47.3417 56.5985ZM17.6012 56.5641C13.5664 54.1615 15.4106 45.9106 16.3357 42.0768C18.9981 42.6851 21.9453 43.1227 25.0952 43.3865C26.8933 45.9997 28.7768 48.4018 30.6748 50.5055C28.3298 52.848 21.6548 58.9777 17.6012 56.5641ZM2.77656 29.9444C2.77656 25.0938 10.7078 22.623 14.4279 21.5368C15.2414 24.2688 16.3084 27.1255 17.596 30.0143C16.2917 32.946 15.2095 35.8479 14.3885 38.6123C10.8413 37.5637 2.77656 34.7979 2.77656 29.9444ZM17.558 3.46971C21.6092 1.04806 27.8952 6.94576 30.5845 9.6003C28.6962 11.6943 26.8301 14.0783 25.0473 16.6765C21.9904 16.9691 19.064 17.439 16.3737 18.0685C15.3644 13.8939 13.5112 5.88874 17.558 3.46971ZM41.9885 19.7933C44.0624 20.0635 46.0495 20.4231 47.9152 20.8629C47.3551 22.7169 46.657 24.6556 45.8348 26.643C44.6429 24.3076 43.3634 22.0191 41.9885 19.7933ZM32.531 11.6495C33.8117 13.0822 35.0944 14.6822 36.3562 16.4181C33.7968 16.293 31.2332 16.2925 28.6737 16.4162C29.9366 14.6965 31.2303 13.0989 32.531 11.6495ZM19.1891 26.6409C18.3805 24.6605 17.6886 22.7132 17.1236 20.8327C18.9782 20.4042 20.956 20.0538 23.0165 19.788C21.6376 22.0089 20.3604 24.2965 19.1891 26.6409ZM23.0757 40.3055C20.9471 40.0602 18.9394 39.7276 17.0854 39.3108C17.6593 37.3973 18.3664 35.4081 19.1922 33.3849C20.3797 35.7538 21.6764 38.0635 23.0757 40.3055ZM32.6079 48.4419C31.2919 46.9754 29.9791 45.3533 28.6971 43.6087C31.2711 43.713 33.8501 43.7132 36.4238 43.5946C35.1581 45.3711 33.88 46.9955 32.6079 48.4419ZM45.8612 33.282C46.73 35.3271 47.4624 37.3055 48.0441 39.1867C46.1593 39.6309 44.1246 39.9886 41.9807 40.2542C43.3658 37.9862 44.6656 35.6622 45.8612 33.282ZM38.4525 40.6018C34.5152 40.8923 30.5535 40.8891 26.6149 40.6255C24.377 37.2496 22.3847 33.6992 20.665 30.0134C22.3765 26.3352 24.3542 22.7917 26.5815 19.4211C30.5229 19.1135 34.4886 19.1125 38.43 19.4229C40.6382 22.7933 42.6129 26.3275 44.364 29.9725C42.6337 33.6489 40.6456 37.1995 38.4525 40.6018ZM47.299 3.38446C51.3513 5.79817 49.5476 14.3706 48.6623 18.0983C45.9656 17.4556 43.0372 16.9775 39.9713 16.6802C38.1851 14.0539 36.3346 11.6658 34.4769 9.59882C37.2006 6.8871 43.2859 0.994359 47.299 3.38446Z" fill="#53C1DE"/>
</svg>
