<svg width="60" height="60" viewBox="0 0 60 60" fill="none" xmlns="http://www.w3.org/2000/svg">
<rect width="60" height="60" rx="30" fill="white"/>
<path d="M38.1926 37.8653C39.7598 37.7058 40.9487 36.3775 40.8946 34.7835C40.8407 33.1896 39.4895 31.9144 37.8683 31.9144H37.7603C36.0848 31.9675 34.7878 33.3489 34.8419 34.996C34.896 35.793 35.2202 36.4837 35.7065 36.9619C33.8691 40.5219 31.0589 43.1253 26.8436 45.3038C23.9793 46.7915 21.0071 47.3228 18.0348 46.951C15.6028 46.6321 13.7113 45.5696 12.5222 43.816C10.793 41.2126 10.6309 38.3965 12.0901 35.5805C13.1169 33.5614 14.738 32.0737 15.7649 31.3298C15.5487 30.6391 15.2244 29.4703 15.0623 28.6202C7.22613 34.1991 8.03684 41.7439 10.4147 45.3038C12.1981 47.9605 15.819 49.6076 19.8181 49.6076C20.8989 49.6076 21.9797 49.5013 23.0606 49.2358C29.9781 47.9074 35.2203 43.8692 38.1926 37.8653V37.8653ZM47.7042 31.2768C43.5968 26.548 37.5441 23.9445 30.6266 23.9445H29.762C29.2756 22.9881 28.2487 22.3505 27.1139 22.3505H27.0057C25.3305 22.4036 24.0336 23.785 24.0875 25.4322C24.1416 27.0262 25.4926 28.3014 27.1139 28.3014H27.2219C28.4108 28.2482 29.4377 27.5043 29.87 26.4948H30.8428C34.9501 26.4948 38.8411 27.6637 42.354 29.9484C45.056 31.7018 47.0016 33.9866 48.0824 36.7494C49.0011 38.981 48.947 41.1594 47.9742 43.0192C46.4611 45.8351 43.9212 47.376 40.5705 47.376C38.4088 47.376 36.3552 46.7383 35.2742 46.2601C34.6798 46.7915 33.5989 47.6415 32.8423 48.173C35.1662 49.2356 37.5441 49.8201 39.8139 49.8201C45.0019 49.8201 48.839 47.004 50.2982 44.188C51.8654 41.1063 51.7572 35.793 47.7042 31.2768V31.2768ZM20.2504 38.7683C20.3045 40.3624 21.6555 41.6374 23.2768 41.6374H23.385C25.0603 41.5844 26.3572 40.2029 26.3032 38.5558C26.2492 36.9617 24.8981 35.6867 23.2768 35.6867H23.1688C23.0606 35.6867 22.8984 35.6867 22.7906 35.7397C20.5748 32.1267 19.656 28.195 19.9804 23.9444C20.1964 20.7564 21.2773 17.9934 23.1688 15.7087C24.736 13.7428 27.7623 12.7864 29.8161 12.7334C35.5445 12.627 37.9763 19.6405 38.1385 22.4566C38.8411 22.616 40.03 22.988 40.8407 23.2537C40.1921 14.6463 34.7878 10.1831 29.5999 10.1831C24.736 10.1831 20.2504 13.6368 18.4669 18.7375C15.9811 25.5384 17.6023 32.0737 20.6287 37.2276C20.3586 37.5994 20.1964 38.184 20.2504 38.7685V38.7683Z" fill="#764ABC"/>
</svg>
