<svg width="60" height="60" viewBox="0 0 60 60" fill="none" xmlns="http://www.w3.org/2000/svg">
<circle cx="30" cy="30" r="30" fill="white"/>
<path d="M18.5 25.6667C20.1667 19.2222 24.3333 16 31 16C41 16 42.25 23.25 47.25 24.4583C50.5833 25.2639 53.5 24.0556 56 20.8333C54.3333 27.2778 50.1667 30.5 43.5 30.5C33.5 30.5 32.25 23.25 27.25 22.0417C23.9167 21.2361 21 22.4444 18.5 25.6667ZM6 40.1667C7.66667 33.7222 11.8333 30.5 18.5 30.5C28.5 30.5 29.75 37.75 34.75 38.9583C38.0833 39.7639 41 38.5556 43.5 35.3333C41.8333 41.7778 37.6667 45 31 45C21 45 19.75 37.75 14.75 36.5417C11.4167 35.7361 8.5 36.9444 6 40.1667Z" fill="#44A8B3"/>
</svg>
